<svg width="574" height="588" viewBox="0 0 574 588" fill="none" xmlns="http://www.w3.org/2000/svg">
<g opacity="0.6">
<path d="M321.633 269V196.622L355 173.357V91.0701M305.183 253.692V170.974L335.562 149.002V52.0666M283.271 245.937V149.002M253.39 253.692V162.357M253.39 162.357L226 137.8V12M253.39 162.357V80.0701" stroke="#08A0AB" stroke-width="2"/>
<circle cx="335.5" cy="47.5" r="5.5" fill="#08A0AB" stroke="#08A0AB" stroke-width="2"/>
<circle cx="253.5" cy="74.5" r="5.5" fill="#08A0AB" stroke="#08A0AB" stroke-width="2"/>
<circle cx="225.5" cy="6.5" r="5.5" fill="#08A0AB" stroke="#08A0AB" stroke-width="2"/>
<circle cx="355.5" cy="85.5" r="5.5" fill="#08A0AB" stroke="#08A0AB" stroke-width="2"/>
<circle cx="283.5" cy="143.5" r="5.5" fill="#08A0AB" stroke="#08A0AB" stroke-width="2"/>
</g>
<g opacity="0.6">
<path d="M316 324.633L388.378 324.633L411.643 358L443.93 358M320.308 312.183L403.026 312.183L424.998 342.562L505.933 342.562M320.308 270.39L411.643 270.39M411.643 270.39L436.2 243L562 243M411.643 270.39L452.786 270.39M493.93 270.39L452.786 270.39M452.786 270.39L471.5 308.5L540.5 308.5" stroke="#08A0AB" stroke-width="2"/>
<path d="M510.601 347.5C507.563 347.5 505.101 345.038 505.101 342C505.101 338.962 507.563 336.5 510.601 336.5C513.638 336.5 516.101 338.962 516.101 342C516.101 345.038 513.638 347.5 510.601 347.5Z" fill="#08A0AB" stroke="#08A0AB" stroke-width="2"/>
<circle cx="499.5" cy="270.5" r="5.5" transform="rotate(90 499.5 270.5)" fill="#08A0AB" stroke="#08A0AB" stroke-width="2"/>
<circle cx="567.5" cy="242.5" r="5.5" transform="rotate(90 567.5 242.5)" fill="#08A0AB" stroke="#08A0AB" stroke-width="2"/>
<circle cx="448.5" cy="357.5" r="5.5" transform="rotate(90 448.5 357.5)" fill="#08A0AB" stroke="#08A0AB" stroke-width="2"/>
<circle cx="546.5" cy="308.5" r="5.5" transform="rotate(90 546.5 308.5)" fill="#08A0AB" stroke="#08A0AB" stroke-width="2"/>
</g>
<g opacity="0.6">
<path d="M258 276.367L185.622 276.367L162.357 243L130.07 243M253.692 288.817L170.974 288.817L149.002 258.438L68.0666 258.438M253.692 330.61L162.357 330.61M162.357 330.61L137.8 358L12 358M162.357 330.61L121.214 330.61M80.0701 330.61L121.214 330.61M121.214 330.61L102.5 292.5L33.5 292.5" stroke="#08A0AB" stroke-width="2"/>
<path d="M63.3994 253.5C66.437 253.5 68.8994 255.962 68.8994 259C68.8994 262.038 66.437 264.5 63.3994 264.5C60.3618 264.5 57.8994 262.038 57.8994 259C57.8994 255.962 60.3618 253.5 63.3994 253.5Z" fill="#08A0AB" stroke="#08A0AB" stroke-width="2"/>
<circle cx="74.5" cy="330.5" r="5.5" transform="rotate(-90 74.5 330.5)" fill="#08A0AB" stroke="#08A0AB" stroke-width="2"/>
<circle cx="6.5" cy="358.5" r="5.5" transform="rotate(-90 6.5 358.5)" fill="#08A0AB" stroke="#08A0AB" stroke-width="2"/>
<circle cx="125.5" cy="243.5" r="5.5" transform="rotate(-90 125.5 243.5)" fill="#08A0AB" stroke="#08A0AB" stroke-width="2"/>
<circle cx="27.5" cy="292.5" r="5.5" transform="rotate(-90 27.5 292.5)" fill="#08A0AB" stroke="#08A0AB" stroke-width="2"/>
</g>
<g opacity="0.6">
<path d="M250.367 351V416.317L217 437.312V481.571M260.817 357.888V432.536L230.438 452.364V509.842M282.729 364.886V552.364M312.61 357.888V440.312M312.61 440.312L349 462.473V576M312.61 440.312V514.571" stroke="#08A0AB" stroke-width="2"/>
<circle cx="230.5" cy="514.5" r="5.5" transform="rotate(-180 230.5 514.5)" fill="#08A0AB" stroke="#08A0AB" stroke-width="2"/>
<circle cx="312.5" cy="520.5" r="5.5" transform="rotate(-180 312.5 520.5)" fill="#08A0AB" stroke="#08A0AB" stroke-width="2"/>
<circle cx="348.5" cy="581.5" r="5.5" transform="rotate(-180 348.5 581.5)" fill="#08A0AB" stroke="#08A0AB" stroke-width="2"/>
<circle cx="216.5" cy="486.5" r="5.5" transform="rotate(-180 216.5 486.5)" fill="#08A0AB" stroke="#08A0AB" stroke-width="2"/>
<circle cx="283.5" cy="558.5" r="5.5" transform="rotate(-180 283.5 558.5)" fill="#08A0AB" stroke="#08A0AB" stroke-width="2"/>
</g>
<g filter="url(#filter0_d)">
<rect width="77.8247" height="77.8247" transform="matrix(0.866025 0.5 -0.866025 0.5 282.398 304.825)" fill="#122333"/>
</g>
<rect width="77.8247" height="77.8247" transform="matrix(0.866025 0.5 -2.20305e-08 1 215 265.913)" fill="#2FCCD7"/>
<rect width="77.8247" height="77.8247" transform="matrix(0.866025 -0.5 2.20305e-08 1 282.272 304.825)" fill="url(#paint0_linear)"/>
<rect width="77.8247" height="77.8247" transform="matrix(0.866025 0.5 -0.866025 0.5 282.398 227)" fill="url(#paint1_linear)"/>
<defs>
<filter id="filter0_d" x="185" y="280.825" width="194.796" height="137.825" filterUnits="userSpaceOnUse" color-interpolation-filters="sRGB">
<feFlood flood-opacity="0" result="BackgroundImageFix"/>
<feColorMatrix in="SourceAlpha" type="matrix" values="0 0 0 0 0 0 0 0 0 0 0 0 0 0 0 0 0 0 127 0"/>
<feOffset dy="6"/>
<feGaussianBlur stdDeviation="15"/>
<feColorMatrix type="matrix" values="0 0 0 0 0.160784 0 0 0 0 0.819608 0 0 0 0 0.862745 0 0 0 0.25 0"/>
<feBlend mode="normal" in2="BackgroundImageFix" result="effect1_dropShadow"/>
<feBlend mode="normal" in="SourceGraphic" in2="effect1_dropShadow" result="shape"/>
</filter>
<linearGradient id="paint0_linear" x1="74.6935" y1="0.670577" x2="31.3329" y2="93.0872" gradientUnits="userSpaceOnUse">
<stop stop-color="#14BFCA"/>
<stop offset="1" stop-color="#27C7D1"/>
</linearGradient>
<linearGradient id="paint1_linear" x1="68.6801" y1="-3.41023" x2="25.7814" y2="89.4157" gradientUnits="userSpaceOnUse">
<stop stop-color="#4CE1EB"/>
<stop offset="1" stop-color="#29D1DC"/>
</linearGradient>
</defs>
</svg>
